<?xml version="1.0" encoding="UTF-8" standalone="no"?>
<!-- Created with Inkscape (http://www.inkscape.org/) -->
<svg
   xmlns:dc="http://purl.org/dc/elements/1.1/"
   xmlns:cc="http://creativecommons.org/ns#"
   xmlns:rdf="http://www.w3.org/1999/02/22-rdf-syntax-ns#"
   xmlns:svg="http://www.w3.org/2000/svg"
   xmlns="http://www.w3.org/2000/svg"
   xmlns:sodipodi="http://sodipodi.sourceforge.net/DTD/sodipodi-0.dtd"
   xmlns:inkscape="http://www.inkscape.org/namespaces/inkscape"
   width="48px"
   height="48px"
   id="svg2383"
   sodipodi:version="0.32"
   inkscape:version="0.46"
   sodipodi:docname="moob-logo.svg"
   inkscape:output_extension="org.inkscape.output.svg.inkscape">
  <defs
     id="defs2385">
    <inkscape:perspective
       sodipodi:type="inkscape:persp3d"
       inkscape:vp_x="0 : 24 : 1"
       inkscape:vp_y="0 : 1000 : 0"
       inkscape:vp_z="48 : 24 : 1"
       inkscape:persp3d-origin="24 : 16 : 1"
       id="perspective2391" />
  </defs>
  <sodipodi:namedview
     id="base"
     pagecolor="#ffffff"
     bordercolor="#666666"
     borderopacity="1.0"
     inkscape:pageopacity="0.0"
     inkscape:pageshadow="2"
     inkscape:zoom="8"
     inkscape:cx="35.029471"
     inkscape:cy="26.445833"
     inkscape:current-layer="layer1"
     showgrid="true"
     inkscape:grid-bbox="true"
     inkscape:document-units="px"
     showguides="true"
     inkscape:guide-bbox="true"
     inkscape:window-width="1680"
     inkscape:window-height="975"
     inkscape:window-x="0"
     inkscape:window-y="25">
    <sodipodi:guide
       orientation="0,1"
       position="-1.5714286,47.857143"
       id="guide2397" />
    <sodipodi:guide
       orientation="1,0"
       position="0,38.571429"
       id="guide2399" />
    <sodipodi:guide
       orientation="0,1"
       position="17.857143,0"
       id="guide2401" />
    <sodipodi:guide
       orientation="1,0"
       position="48.142857,17.857143"
       id="guide2403" />
  </sodipodi:namedview>
  <metadata
     id="metadata2388">
    <rdf:RDF>
      <cc:Work
         rdf:about="">
        <dc:format>image/svg+xml</dc:format>
        <dc:type
           rdf:resource="http://purl.org/dc/dcmitype/StillImage" />
      </cc:Work>
    </rdf:RDF>
  </metadata>
  <g
     id="layer1"
     inkscape:label="Layer 1"
     inkscape:groupmode="layer">
    <rect
       style="opacity:0.47580644000000000;fill:#803300;fill-opacity:1;stroke:#000000;stroke-width:0;stroke-miterlimit:4;stroke-dasharray:none;stroke-opacity:1"
       id="rect2415"
       width="48.142857"
       height="48.142857"
       x="4.020996e-07"
       y="-0.1428566" />
    <path
       style="font-size:38px;font-style:normal;font-weight:normal;fill:#ffffff;fill-opacity:1;stroke:none;stroke-width:1px;stroke-linecap:butt;stroke-linejoin:miter;stroke-opacity:1;font-family:Bitstream Vera Sans"
       d="M 33.469594,20.887287 C 35.904865,20.887306 37.783525,21.606755 39.10558,23.045633 C 40.427566,24.472848 41.088576,26.50836 41.088613,29.152171 L 41.088613,41.014299 L 36.101919,40.765468 L 36.945669,30.128365 C 36.945634,28.244945 36.689655,27.46907 35.896476,26.556585 C 35.103229,25.64413 34.033162,24.939064 32.40502,24.939047 C 30.415003,24.939064 29.545618,25.494736 28.390615,26.606061 C 27.235561,27.717419 27.220549,29.854432 27.220572,31.772947 L 27.501822,41.014299 L 21.390127,41.014299 L 21.671377,30.501611 C 21.671359,28.606493 21.556002,26.959709 20.762809,26.058923 C 19.969578,25.146468 19.013466,24.69649 16.667104,25.063462 C 14.690275,25.372639 14.271343,25.376169 13.116324,26.499193 C 11.961286,27.610552 12.508771,32.230024 12.50878,34.136842 L 12.649405,41.014299 L 6.9595858,41.014299 L 7.1002108,25.715615 L 8.1494053,23.600551 C 11.19901,21.284007 14.483947,20.745269 18.335928,20.887287"
       id="text2393"
       sodipodi:nodetypes="ccccccsssccccssccccccc" />
    <path
       transform="matrix(-0.6427877,0.7660446,-0.7660446,-0.6427877,44.400725,8.422894)"
       style="fill:#ffffff;fill-rule:evenodd;stroke:none;stroke-width:1px;stroke-linecap:butt;stroke-linejoin:miter;stroke-opacity:0.3150685"
       d="M 18.158908,9.3426307 C 19.493713,10.335153 19.271481,11.653376 18.979167,12.270833 C 18.456285,13.375319 17.00409,13.553514 16.03125,12.96875 C 14.603568,12.110585 14.405025,10.15044 15.291667,8.8333333 C 16.47342,7.0778367 18.957133,6.8595765 20.614583,8.0520832 C 22.700315,9.5527312 22.93793,12.566571 21.4375,14.5625 C 19.620279,16.979837 16.072941,17.236626 13.739583,15.427084 C 7.5369728,8.6630265 15.717115,1.4626551 22.90625,5.5937498 C 26.322395,8.354599 26.914742,13.970172 24.249698,17.373119 C 20.458796,22.213655 14.449016,21.573032 11.017016,18.246985 C 6.1205466,13.50168 6.6569001,7.2568643 11.666043,2.6771583"
       id="path3212"
       sodipodi:nodetypes="csssssccssc" />
  </g>
</svg>
